<mxfile host="app.diagrams.net" modified="2024-02-29T09:08:22.280Z" agent="Mozilla/5.0 (Windows NT 10.0; Win64; x64) AppleWebKit/537.36 (KHTML, like Gecko) Chrome/122.0.0.0 Safari/537.36" etag="BnS_LpjsS2e-Yhl8XyZe" version="23.1.7" type="github">
  <diagram name="Page-1" id="Asiu2pT05hSfdxK3koYy">
    <mxGraphModel dx="880" dy="1534" grid="1" gridSize="10" guides="1" tooltips="1" connect="1" arrows="1" fold="1" page="1" pageScale="1" pageWidth="850" pageHeight="1100" math="0" shadow="0">
      <root>
        <mxCell id="0" />
        <mxCell id="1" parent="0" />
        <mxCell id="le-MzcUO9m41dVWZaQ8u-1" value="" style="rounded=0;whiteSpace=wrap;html=1;fillColor=#ffe6cc;strokeColor=#d79b00;" vertex="1" parent="1">
          <mxGeometry x="23.5" y="-460" width="1213" height="780" as="geometry" />
        </mxCell>
        <mxCell id="le-MzcUO9m41dVWZaQ8u-2" value="" style="ellipse;shape=cloud;whiteSpace=wrap;html=1;fillColor=#d5e8d4;strokeColor=#82b366;" vertex="1" parent="1">
          <mxGeometry x="250" y="-409.43" width="210" height="130" as="geometry" />
        </mxCell>
        <mxCell id="le-MzcUO9m41dVWZaQ8u-3" value="" style="image;html=1;image=img/lib/clip_art/computers/Monitor_128x128.png" vertex="1" parent="1">
          <mxGeometry x="40" y="-399.43" width="120" height="109.43" as="geometry" />
        </mxCell>
        <mxCell id="le-MzcUO9m41dVWZaQ8u-4" value="" style="whiteSpace=wrap;html=1;aspect=fixed;fillColor=#d5e8d4;strokeColor=#82b366;" vertex="1" parent="1">
          <mxGeometry x="40" y="-160" width="380" height="380" as="geometry" />
        </mxCell>
        <mxCell id="le-MzcUO9m41dVWZaQ8u-5" value="" style="whiteSpace=wrap;html=1;aspect=fixed;fillColor=#d5e8d4;strokeColor=#82b366;" vertex="1" parent="1">
          <mxGeometry x="440" y="-160" width="380" height="380" as="geometry" />
        </mxCell>
        <mxCell id="le-MzcUO9m41dVWZaQ8u-6" value="" style="image;html=1;image=img/lib/clip_art/computers/Server_Rack_128x128.png" vertex="1" parent="1">
          <mxGeometry x="100" y="-255" width="80" height="80" as="geometry" />
        </mxCell>
        <mxCell id="le-MzcUO9m41dVWZaQ8u-7" value="" style="image;html=1;image=img/lib/clip_art/computers/Server_Rack_128x128.png" vertex="1" parent="1">
          <mxGeometry x="680" y="-250" width="80" height="80" as="geometry" />
        </mxCell>
        <mxCell id="le-MzcUO9m41dVWZaQ8u-8" value="" style="image;html=1;image=img/lib/clip_art/networking/Router_Icon_128x128.png" vertex="1" parent="1">
          <mxGeometry x="570" y="-390" width="70" height="70" as="geometry" />
        </mxCell>
        <mxCell id="le-MzcUO9m41dVWZaQ8u-9" value="" style="image;html=1;image=img/lib/clip_art/computers/Server_Tower_128x128.png" vertex="1" parent="1">
          <mxGeometry x="340" y="-150" width="80" height="80" as="geometry" />
        </mxCell>
        <mxCell id="le-MzcUO9m41dVWZaQ8u-10" value="" style="image;html=1;image=img/lib/clip_art/computers/Server_Tower_128x128.png" vertex="1" parent="1">
          <mxGeometry x="740" y="-150" width="80" height="80" as="geometry" />
        </mxCell>
        <mxCell id="le-MzcUO9m41dVWZaQ8u-11" value="&lt;font style=&quot;font-size: 14px;&quot;&gt;&lt;b&gt;APP SERVER&lt;/b&gt;&lt;/font&gt;" style="text;strokeColor=none;align=center;fillColor=none;html=1;verticalAlign=middle;whiteSpace=wrap;rounded=0;" vertex="1" parent="1">
          <mxGeometry x="350" y="-70" width="60" height="30" as="geometry" />
        </mxCell>
        <mxCell id="le-MzcUO9m41dVWZaQ8u-12" value="&lt;font style=&quot;font-size: 14px;&quot;&gt;&lt;b&gt;APP SERVER&lt;/b&gt;&lt;/font&gt;" style="text;strokeColor=none;align=center;fillColor=none;html=1;verticalAlign=middle;whiteSpace=wrap;rounded=0;" vertex="1" parent="1">
          <mxGeometry x="750" y="-70" width="60" height="30" as="geometry" />
        </mxCell>
        <mxCell id="le-MzcUO9m41dVWZaQ8u-13" value="" style="image;html=1;image=img/lib/clip_art/computers/Server_128x128.png" vertex="1" parent="1">
          <mxGeometry x="50" y="-150" width="80" height="80" as="geometry" />
        </mxCell>
        <mxCell id="le-MzcUO9m41dVWZaQ8u-14" value="" style="image;html=1;image=img/lib/clip_art/computers/Server_128x128.png" vertex="1" parent="1">
          <mxGeometry x="450" y="-150" width="80" height="80" as="geometry" />
        </mxCell>
        <mxCell id="le-MzcUO9m41dVWZaQ8u-15" value="&lt;font style=&quot;font-size: 14px;&quot;&gt;&lt;b&gt;WEB SERVER (NGINIX)&lt;/b&gt;&lt;/font&gt;" style="text;strokeColor=none;align=center;fillColor=none;html=1;verticalAlign=middle;whiteSpace=wrap;rounded=0;" vertex="1" parent="1">
          <mxGeometry x="50" y="-70" width="60" height="30" as="geometry" />
        </mxCell>
        <mxCell id="le-MzcUO9m41dVWZaQ8u-16" value="&lt;font style=&quot;font-size: 14px;&quot;&gt;&lt;b&gt;WEB SERVER (NGINIX)&lt;/b&gt;&lt;/font&gt;" style="text;strokeColor=none;align=center;fillColor=none;html=1;verticalAlign=middle;whiteSpace=wrap;rounded=0;" vertex="1" parent="1">
          <mxGeometry x="460" y="-70" width="60" height="30" as="geometry" />
        </mxCell>
        <mxCell id="le-MzcUO9m41dVWZaQ8u-17" value="" style="image;html=1;image=img/lib/clip_art/computers/Database_128x128.png" vertex="1" parent="1">
          <mxGeometry x="315" y="40" width="80" height="120" as="geometry" />
        </mxCell>
        <mxCell id="le-MzcUO9m41dVWZaQ8u-18" value="" style="image;html=1;image=img/lib/clip_art/computers/Database_128x128.png" vertex="1" parent="1">
          <mxGeometry x="720" y="50" width="80" height="120" as="geometry" />
        </mxCell>
        <mxCell id="le-MzcUO9m41dVWZaQ8u-19" value="&lt;b style=&quot;border-color: var(--border-color); font-size: 14px;&quot;&gt;DATABASE&lt;br style=&quot;border-color: var(--border-color);&quot;&gt;(MY SQL)&lt;/b&gt;" style="text;strokeColor=none;align=center;fillColor=none;html=1;verticalAlign=middle;whiteSpace=wrap;rounded=0;" vertex="1" parent="1">
          <mxGeometry x="325" y="170" width="60" height="30" as="geometry" />
        </mxCell>
        <mxCell id="le-MzcUO9m41dVWZaQ8u-20" value="&lt;b style=&quot;border-color: var(--border-color); font-size: 14px;&quot;&gt;DATABASE&lt;br style=&quot;border-color: var(--border-color);&quot;&gt;(MY SQL)&lt;/b&gt;" style="text;strokeColor=none;align=center;fillColor=none;html=1;verticalAlign=middle;whiteSpace=wrap;rounded=0;" vertex="1" parent="1">
          <mxGeometry x="740" y="170" width="60" height="30" as="geometry" />
        </mxCell>
        <mxCell id="le-MzcUO9m41dVWZaQ8u-21" value="" style="image;html=1;image=img/lib/clip_art/general/Full_Folder_128x128.png" vertex="1" parent="1">
          <mxGeometry x="60" y="70" width="100" height="90" as="geometry" />
        </mxCell>
        <mxCell id="le-MzcUO9m41dVWZaQ8u-22" value="" style="image;html=1;image=img/lib/clip_art/general/Full_Folder_128x128.png" vertex="1" parent="1">
          <mxGeometry x="470" y="65" width="100" height="90" as="geometry" />
        </mxCell>
        <mxCell id="le-MzcUO9m41dVWZaQ8u-23" value="&lt;font style=&quot;font-size: 14px;&quot;&gt;&lt;b&gt;APPLICATION FILES (CODE BASE)&lt;/b&gt;&lt;/font&gt;" style="text;strokeColor=none;align=center;fillColor=none;html=1;verticalAlign=middle;whiteSpace=wrap;rounded=0;" vertex="1" parent="1">
          <mxGeometry x="70" y="170" width="60" height="30" as="geometry" />
        </mxCell>
        <mxCell id="le-MzcUO9m41dVWZaQ8u-24" value="&lt;font style=&quot;font-size: 14px;&quot;&gt;&lt;b&gt;APPLICATION FILES (CODE BASE)&lt;/b&gt;&lt;/font&gt;" style="text;strokeColor=none;align=center;fillColor=none;html=1;verticalAlign=middle;whiteSpace=wrap;rounded=0;" vertex="1" parent="1">
          <mxGeometry x="470" y="170" width="60" height="30" as="geometry" />
        </mxCell>
        <mxCell id="le-MzcUO9m41dVWZaQ8u-25" value="" style="edgeStyle=none;orthogonalLoop=1;jettySize=auto;html=1;rounded=0;exitX=0.833;exitY=0.086;exitDx=0;exitDy=0;exitPerimeter=0;" edge="1" parent="1">
          <mxGeometry width="80" relative="1" as="geometry">
            <mxPoint x="159.96000000000004" y="-365.78901999999994" as="sourcePoint" />
            <mxPoint x="490" y="-365" as="targetPoint" />
            <Array as="points" />
          </mxGeometry>
        </mxCell>
        <mxCell id="le-MzcUO9m41dVWZaQ8u-26" value="" style="edgeStyle=none;orthogonalLoop=1;jettySize=auto;html=1;rounded=0;" edge="1" parent="1">
          <mxGeometry width="80" relative="1" as="geometry">
            <mxPoint x="490" y="-320" as="sourcePoint" />
            <mxPoint x="160.00000000000006" y="-319.9990199999999" as="targetPoint" />
            <Array as="points" />
          </mxGeometry>
        </mxCell>
        <mxCell id="le-MzcUO9m41dVWZaQ8u-27" value="&lt;font style=&quot;font-size: 18px;&quot;&gt;&lt;b&gt;CLIENT&lt;/b&gt;&lt;/font&gt;" style="text;strokeColor=none;align=center;fillColor=none;html=1;verticalAlign=middle;whiteSpace=wrap;rounded=0;" vertex="1" parent="1">
          <mxGeometry x="40" y="-290" width="60" height="30" as="geometry" />
        </mxCell>
        <mxCell id="le-MzcUO9m41dVWZaQ8u-28" value="&lt;font style=&quot;font-size: 12px;&quot;&gt;&lt;b&gt;LOAD BALANCER&lt;br&gt;(HAPROXY)&lt;/b&gt;&lt;/font&gt;" style="text;strokeColor=none;align=center;fillColor=none;html=1;verticalAlign=middle;whiteSpace=wrap;rounded=0;" vertex="1" parent="1">
          <mxGeometry x="585" y="-419.43" width="110" height="30" as="geometry" />
        </mxCell>
        <mxCell id="le-MzcUO9m41dVWZaQ8u-29" value="&lt;b&gt;ACTIVE-PASSIVE&lt;/b&gt;" style="text;strokeColor=none;align=center;fillColor=none;html=1;verticalAlign=middle;whiteSpace=wrap;rounded=0;" vertex="1" parent="1">
          <mxGeometry x="800" y="-370" width="110" height="30" as="geometry" />
        </mxCell>
        <mxCell id="le-MzcUO9m41dVWZaQ8u-30" value="" style="endArrow=classic;startArrow=classic;html=1;rounded=0;entryX=0.196;entryY=1.017;entryDx=0;entryDy=0;entryPerimeter=0;" edge="1" parent="1" target="le-MzcUO9m41dVWZaQ8u-83">
          <mxGeometry width="50" height="50" relative="1" as="geometry">
            <mxPoint x="340" y="-170" as="sourcePoint" />
            <mxPoint x="540" y="-309.4284375" as="targetPoint" />
          </mxGeometry>
        </mxCell>
        <mxCell id="le-MzcUO9m41dVWZaQ8u-31" value="" style="endArrow=classic;startArrow=classic;html=1;rounded=0;entryX=0.46;entryY=0.192;entryDx=0;entryDy=0;entryPerimeter=0;" edge="1" parent="1" target="le-MzcUO9m41dVWZaQ8u-1">
          <mxGeometry width="50" height="50" relative="1" as="geometry">
            <mxPoint x="610" y="-180" as="sourcePoint" />
            <mxPoint x="574.92" y="-310" as="targetPoint" />
          </mxGeometry>
        </mxCell>
        <mxCell id="le-MzcUO9m41dVWZaQ8u-32" value="HTTP REQUEST&amp;nbsp; 8.8.8.8." style="text;strokeColor=none;align=center;fillColor=none;html=1;verticalAlign=middle;whiteSpace=wrap;rounded=0;" vertex="1" parent="1">
          <mxGeometry x="160" y="-389.43" width="150" height="30" as="geometry" />
        </mxCell>
        <mxCell id="le-MzcUO9m41dVWZaQ8u-33" value="HTTP RESPONSE&amp;nbsp;&amp;nbsp;" style="text;strokeColor=none;align=center;fillColor=none;html=1;verticalAlign=middle;whiteSpace=wrap;rounded=0;" vertex="1" parent="1">
          <mxGeometry x="165" y="-340" width="115" height="30" as="geometry" />
        </mxCell>
        <mxCell id="le-MzcUO9m41dVWZaQ8u-34" value="&lt;font style=&quot;font-size: 14px;&quot;&gt;&lt;b&gt;INTERNET&lt;/b&gt;&lt;/font&gt;" style="text;strokeColor=none;align=center;fillColor=none;html=1;verticalAlign=middle;whiteSpace=wrap;rounded=0;" vertex="1" parent="1">
          <mxGeometry x="340" y="-350" width="60" height="30" as="geometry" />
        </mxCell>
        <mxCell id="le-MzcUO9m41dVWZaQ8u-35" value="&lt;b&gt;&lt;font style=&quot;font-size: 14px;&quot;&gt;SERVER&lt;/font&gt;&lt;/b&gt;" style="text;strokeColor=none;align=center;fillColor=none;html=1;verticalAlign=middle;whiteSpace=wrap;rounded=0;" vertex="1" parent="1">
          <mxGeometry x="180" y="-225" width="60" height="30" as="geometry" />
        </mxCell>
        <mxCell id="le-MzcUO9m41dVWZaQ8u-36" value="&lt;b&gt;&lt;font style=&quot;font-size: 14px;&quot;&gt;SERVER&lt;/font&gt;&lt;/b&gt;" style="text;strokeColor=none;align=center;fillColor=none;html=1;verticalAlign=middle;whiteSpace=wrap;rounded=0;" vertex="1" parent="1">
          <mxGeometry x="750" y="-230" width="60" height="30" as="geometry" />
        </mxCell>
        <mxCell id="le-MzcUO9m41dVWZaQ8u-39" value="" style="endArrow=classic;startArrow=classic;html=1;rounded=0;entryX=-0.05;entryY=0.388;entryDx=0;entryDy=0;entryPerimeter=0;" edge="1" parent="1">
          <mxGeometry width="50" height="50" relative="1" as="geometry">
            <mxPoint x="155" y="-119.98" as="sourcePoint" />
            <mxPoint x="331" y="-118.96000000000004" as="targetPoint" />
            <Array as="points">
              <mxPoint x="225" y="-119" />
            </Array>
          </mxGeometry>
        </mxCell>
        <mxCell id="le-MzcUO9m41dVWZaQ8u-40" value="" style="endArrow=classic;startArrow=classic;html=1;rounded=0;entryX=0.526;entryY=0.395;entryDx=0;entryDy=0;entryPerimeter=0;" edge="1" parent="1">
          <mxGeometry width="50" height="50" relative="1" as="geometry">
            <mxPoint x="89.62" y="59.9" as="sourcePoint" />
            <mxPoint x="89.50000000000011" y="-30.000000000000092" as="targetPoint" />
          </mxGeometry>
        </mxCell>
        <mxCell id="le-MzcUO9m41dVWZaQ8u-41" value="" style="endArrow=classic;startArrow=classic;html=1;rounded=0;entryX=0.526;entryY=0.395;entryDx=0;entryDy=0;entryPerimeter=0;" edge="1" parent="1">
          <mxGeometry width="50" height="50" relative="1" as="geometry">
            <mxPoint x="379.62" y="50.00000000000001" as="sourcePoint" />
            <mxPoint x="379.5000000000001" y="-39.90000000000009" as="targetPoint" />
          </mxGeometry>
        </mxCell>
        <mxCell id="le-MzcUO9m41dVWZaQ8u-42" value="" style="endArrow=classic;startArrow=classic;html=1;rounded=0;entryX=-0.05;entryY=0.388;entryDx=0;entryDy=0;entryPerimeter=0;" edge="1" parent="1">
          <mxGeometry width="50" height="50" relative="1" as="geometry">
            <mxPoint x="544" y="-110.51" as="sourcePoint" />
            <mxPoint x="720" y="-109.49000000000004" as="targetPoint" />
            <Array as="points">
              <mxPoint x="614" y="-109.53" />
            </Array>
          </mxGeometry>
        </mxCell>
        <mxCell id="le-MzcUO9m41dVWZaQ8u-43" value="" style="endArrow=classic;startArrow=classic;html=1;rounded=0;entryX=0.526;entryY=0.395;entryDx=0;entryDy=0;entryPerimeter=0;" edge="1" parent="1">
          <mxGeometry width="50" height="50" relative="1" as="geometry">
            <mxPoint x="499.62" y="65" as="sourcePoint" />
            <mxPoint x="499.5000000000001" y="-24.90000000000009" as="targetPoint" />
          </mxGeometry>
        </mxCell>
        <mxCell id="le-MzcUO9m41dVWZaQ8u-44" value="" style="endArrow=classic;startArrow=classic;html=1;rounded=0;entryX=0.526;entryY=0.395;entryDx=0;entryDy=0;entryPerimeter=0;" edge="1" parent="1">
          <mxGeometry width="50" height="50" relative="1" as="geometry">
            <mxPoint x="779.62" y="59.9" as="sourcePoint" />
            <mxPoint x="779.5000000000001" y="-30.000000000000092" as="targetPoint" />
          </mxGeometry>
        </mxCell>
        <mxCell id="le-MzcUO9m41dVWZaQ8u-46" value="&lt;font style=&quot;font-size: 14px;&quot;&gt;&lt;b&gt;MASTER&lt;/b&gt;&lt;/font&gt;" style="text;strokeColor=none;align=center;fillColor=none;html=1;verticalAlign=middle;whiteSpace=wrap;rounded=0;" vertex="1" parent="1">
          <mxGeometry x="310" y="250" width="60" height="30" as="geometry" />
        </mxCell>
        <mxCell id="le-MzcUO9m41dVWZaQ8u-47" value="&lt;font style=&quot;font-size: 14px;&quot;&gt;&lt;b&gt;REPLICA&lt;/b&gt;&lt;/font&gt;" style="text;strokeColor=none;align=center;fillColor=none;html=1;verticalAlign=middle;whiteSpace=wrap;rounded=0;" vertex="1" parent="1">
          <mxGeometry x="610" y="250" width="60" height="30" as="geometry" />
        </mxCell>
        <mxCell id="le-MzcUO9m41dVWZaQ8u-48" value="" style="shape=actor;whiteSpace=wrap;html=1;fillColor=#1ba1e2;fontColor=#ffffff;strokeColor=#006EAF;" vertex="1" parent="1">
          <mxGeometry x="50" y="240" width="40" height="60" as="geometry" />
        </mxCell>
        <mxCell id="le-MzcUO9m41dVWZaQ8u-49" value="" style="shape=actor;whiteSpace=wrap;html=1;fillColor=#1ba1e2;fontColor=#ffffff;strokeColor=#006EAF;" vertex="1" parent="1">
          <mxGeometry x="550" y="255" width="30" height="40" as="geometry" />
        </mxCell>
        <mxCell id="le-MzcUO9m41dVWZaQ8u-50" value="&lt;font style=&quot;font-size: 14px;&quot;&gt;&lt;b&gt;LAMP&lt;/b&gt;&lt;/font&gt;" style="text;strokeColor=none;align=center;fillColor=none;html=1;verticalAlign=middle;whiteSpace=wrap;rounded=0;" vertex="1" parent="1">
          <mxGeometry x="90" y="270" width="60" height="30" as="geometry" />
        </mxCell>
        <mxCell id="le-MzcUO9m41dVWZaQ8u-51" value="&lt;font style=&quot;font-size: 14px;&quot;&gt;&lt;b&gt;LAMP&lt;/b&gt;&lt;/font&gt;" style="text;strokeColor=none;align=center;fillColor=none;html=1;verticalAlign=middle;whiteSpace=wrap;rounded=0;" vertex="1" parent="1">
          <mxGeometry x="490" y="255.57" width="60" height="30" as="geometry" />
        </mxCell>
        <mxCell id="le-MzcUO9m41dVWZaQ8u-52" value="&lt;font style=&quot;font-size: 14px;&quot;&gt;FIREWALL&lt;/font&gt;" style="text;strokeColor=none;align=center;fillColor=none;html=1;verticalAlign=middle;whiteSpace=wrap;rounded=0;" vertex="1" parent="1">
          <mxGeometry x="442.5" y="-409.43" width="60" height="30" as="geometry" />
        </mxCell>
        <mxCell id="le-MzcUO9m41dVWZaQ8u-53" value="" style="image;aspect=fixed;perimeter=ellipsePerimeter;html=1;align=center;shadow=0;dashed=0;spacingTop=3;image=img/lib/active_directory/secure.svg;" vertex="1" parent="1">
          <mxGeometry x="507.2" y="-430" width="25.6" height="40" as="geometry" />
        </mxCell>
        <mxCell id="le-MzcUO9m41dVWZaQ8u-54" value="SSL&lt;br&gt;HTTPS" style="text;strokeColor=none;align=center;fillColor=none;html=1;verticalAlign=middle;whiteSpace=wrap;rounded=0;" vertex="1" parent="1">
          <mxGeometry x="507.2" y="-449.93" width="60" height="19.93" as="geometry" />
        </mxCell>
        <mxCell id="le-MzcUO9m41dVWZaQ8u-55" value="" style="endArrow=none;startArrow=none;endFill=0;startFill=0;endSize=8;html=1;verticalAlign=bottom;labelBackgroundColor=none;strokeWidth=3;rounded=0;entryX=0.488;entryY=0.321;entryDx=0;entryDy=0;entryPerimeter=0;exitX=0.037;exitY=0.321;exitDx=0;exitDy=0;exitPerimeter=0;" edge="1" parent="1">
          <mxGeometry width="160" relative="1" as="geometry">
            <mxPoint x="55.00000000000003" y="-170.995" as="sourcePoint" />
            <mxPoint x="424.8199999999999" y="-170.995" as="targetPoint" />
          </mxGeometry>
        </mxCell>
        <mxCell id="le-MzcUO9m41dVWZaQ8u-56" value="" style="endArrow=none;startArrow=none;endFill=0;startFill=0;endSize=8;html=1;verticalAlign=bottom;labelBackgroundColor=none;strokeWidth=3;rounded=0;entryX=0.488;entryY=0.321;entryDx=0;entryDy=0;entryPerimeter=0;exitX=0.037;exitY=0.321;exitDx=0;exitDy=0;exitPerimeter=0;" edge="1" parent="1">
          <mxGeometry width="160" relative="1" as="geometry">
            <mxPoint x="445" y="-171" as="sourcePoint" />
            <mxPoint x="822.44" y="-174.31999999999994" as="targetPoint" />
          </mxGeometry>
        </mxCell>
        <mxCell id="le-MzcUO9m41dVWZaQ8u-57" value="" style="html=1;points=[];perimeter=orthogonalPerimeter;fillColor=strokeColor;" vertex="1" parent="1">
          <mxGeometry x="497.5" y="-389.43" width="5" height="80" as="geometry" />
        </mxCell>
        <mxCell id="le-MzcUO9m41dVWZaQ8u-58" value="" style="html=1;points=[];perimeter=orthogonalPerimeter;fillColor=#1ba1e2;fontColor=#ffffff;strokeColor=#006EAF;" vertex="1" parent="1">
          <mxGeometry x="512.5" y="-390" width="5" height="80" as="geometry" />
        </mxCell>
        <mxCell id="le-MzcUO9m41dVWZaQ8u-59" value="&lt;font style=&quot;font-size: 14px;&quot;&gt;FIREWALL&lt;/font&gt;" style="text;strokeColor=none;align=center;fillColor=none;html=1;verticalAlign=middle;whiteSpace=wrap;rounded=0;" vertex="1" parent="1">
          <mxGeometry x="230" y="-195" width="60" height="30" as="geometry" />
        </mxCell>
        <mxCell id="le-MzcUO9m41dVWZaQ8u-60" value="&lt;font style=&quot;font-size: 14px;&quot;&gt;FIREWALL&lt;/font&gt;" style="text;strokeColor=none;align=center;fillColor=none;html=1;verticalAlign=middle;whiteSpace=wrap;rounded=0;" vertex="1" parent="1">
          <mxGeometry x="525" y="-200" width="60" height="30" as="geometry" />
        </mxCell>
        <mxCell id="le-MzcUO9m41dVWZaQ8u-61" value="" style="endArrow=classic;html=1;rounded=0;" edge="1" parent="1">
          <mxGeometry width="50" height="50" relative="1" as="geometry">
            <mxPoint x="815" y="-295" as="sourcePoint" />
            <mxPoint x="785" y="-325" as="targetPoint" />
          </mxGeometry>
        </mxCell>
        <mxCell id="le-MzcUO9m41dVWZaQ8u-62" value="DATADOG MC" style="text;strokeColor=none;align=center;fillColor=none;html=1;verticalAlign=middle;whiteSpace=wrap;rounded=0;" vertex="1" parent="1">
          <mxGeometry x="810" y="-290" width="60" height="30" as="geometry" />
        </mxCell>
        <mxCell id="le-MzcUO9m41dVWZaQ8u-63" value="" style="shape=mxgraph.signs.animals.dog_on_leash;html=1;pointerEvents=1;fillColor=#000000;strokeColor=none;verticalLabelPosition=bottom;verticalAlign=top;align=center;" vertex="1" parent="1">
          <mxGeometry x="1130" y="-419.93" width="97" height="91" as="geometry" />
        </mxCell>
        <mxCell id="le-MzcUO9m41dVWZaQ8u-64" value="DATADOG MONITORING SERVICES" style="text;strokeColor=none;align=center;fillColor=none;html=1;verticalAlign=middle;whiteSpace=wrap;rounded=0;" vertex="1" parent="1">
          <mxGeometry x="1130" y="-310" width="110" height="30" as="geometry" />
        </mxCell>
        <mxCell id="le-MzcUO9m41dVWZaQ8u-65" value="" style="whiteSpace=wrap;html=1;aspect=fixed;fillColor=#d5e8d4;strokeColor=#82b366;" vertex="1" parent="1">
          <mxGeometry x="840" y="-160" width="380" height="380" as="geometry" />
        </mxCell>
        <mxCell id="le-MzcUO9m41dVWZaQ8u-66" value="" style="image;html=1;image=img/lib/clip_art/computers/Server_128x128.png" vertex="1" parent="1">
          <mxGeometry x="850" y="-150" width="80" height="80" as="geometry" />
        </mxCell>
        <mxCell id="le-MzcUO9m41dVWZaQ8u-67" value="&lt;font style=&quot;font-size: 14px;&quot;&gt;&lt;b&gt;WEB SERVER (NGINIX)&lt;/b&gt;&lt;/font&gt;" style="text;strokeColor=none;align=center;fillColor=none;html=1;verticalAlign=middle;whiteSpace=wrap;rounded=0;" vertex="1" parent="1">
          <mxGeometry x="860" y="-60" width="60" height="30" as="geometry" />
        </mxCell>
        <mxCell id="le-MzcUO9m41dVWZaQ8u-68" value="" style="endArrow=classic;startArrow=classic;html=1;rounded=0;entryX=-0.05;entryY=0.388;entryDx=0;entryDy=0;entryPerimeter=0;" edge="1" parent="1">
          <mxGeometry width="50" height="50" relative="1" as="geometry">
            <mxPoint x="942" y="-120" as="sourcePoint" />
            <mxPoint x="1118" y="-118.98000000000003" as="targetPoint" />
            <Array as="points">
              <mxPoint x="1012" y="-119.02" />
            </Array>
          </mxGeometry>
        </mxCell>
        <mxCell id="le-MzcUO9m41dVWZaQ8u-69" value="" style="image;html=1;image=img/lib/clip_art/computers/Server_Tower_128x128.png" vertex="1" parent="1">
          <mxGeometry x="1130" y="-150" width="80" height="80" as="geometry" />
        </mxCell>
        <mxCell id="le-MzcUO9m41dVWZaQ8u-71" value="&lt;font style=&quot;font-size: 14px;&quot;&gt;&lt;b&gt;APP SERVER&lt;/b&gt;&lt;/font&gt;" style="text;strokeColor=none;align=center;fillColor=none;html=1;verticalAlign=middle;whiteSpace=wrap;rounded=0;" vertex="1" parent="1">
          <mxGeometry x="1140" y="-60" width="60" height="30" as="geometry" />
        </mxCell>
        <mxCell id="le-MzcUO9m41dVWZaQ8u-72" value="" style="endArrow=classic;startArrow=classic;html=1;rounded=0;entryX=0.526;entryY=0.395;entryDx=0;entryDy=0;entryPerimeter=0;" edge="1" parent="1">
          <mxGeometry width="50" height="50" relative="1" as="geometry">
            <mxPoint x="889.62" y="74.95" as="sourcePoint" />
            <mxPoint x="889.5000000000001" y="-14.950000000000092" as="targetPoint" />
          </mxGeometry>
        </mxCell>
        <mxCell id="le-MzcUO9m41dVWZaQ8u-73" value="" style="image;html=1;image=img/lib/clip_art/general/Full_Folder_128x128.png" vertex="1" parent="1">
          <mxGeometry x="840" y="80" width="100" height="90" as="geometry" />
        </mxCell>
        <mxCell id="le-MzcUO9m41dVWZaQ8u-74" value="&lt;font style=&quot;font-size: 14px;&quot;&gt;&lt;b&gt;APPLICATION FILES (CODE BASE)&lt;/b&gt;&lt;/font&gt;" style="text;strokeColor=none;align=center;fillColor=none;html=1;verticalAlign=middle;whiteSpace=wrap;rounded=0;" vertex="1" parent="1">
          <mxGeometry x="860" y="180" width="60" height="30" as="geometry" />
        </mxCell>
        <mxCell id="le-MzcUO9m41dVWZaQ8u-75" value="" style="endArrow=classic;startArrow=classic;html=1;rounded=0;entryX=0.526;entryY=0.395;entryDx=0;entryDy=0;entryPerimeter=0;" edge="1" parent="1">
          <mxGeometry width="50" height="50" relative="1" as="geometry">
            <mxPoint x="1178.12" y="70" as="sourcePoint" />
            <mxPoint x="1178" y="-19.90000000000009" as="targetPoint" />
          </mxGeometry>
        </mxCell>
        <mxCell id="le-MzcUO9m41dVWZaQ8u-76" value="" style="image;html=1;image=img/lib/clip_art/computers/Database_128x128.png" vertex="1" parent="1">
          <mxGeometry x="1130" y="65" width="80" height="120" as="geometry" />
        </mxCell>
        <mxCell id="le-MzcUO9m41dVWZaQ8u-77" value="&lt;b style=&quot;border-color: var(--border-color); font-size: 14px;&quot;&gt;DATABASE&lt;br style=&quot;border-color: var(--border-color);&quot;&gt;(MY SQL)&lt;/b&gt;" style="text;strokeColor=none;align=center;fillColor=none;html=1;verticalAlign=middle;whiteSpace=wrap;rounded=0;" vertex="1" parent="1">
          <mxGeometry x="1140" y="180" width="60" height="30" as="geometry" />
        </mxCell>
        <mxCell id="le-MzcUO9m41dVWZaQ8u-78" value="" style="endArrow=none;startArrow=none;endFill=0;startFill=0;endSize=8;html=1;verticalAlign=bottom;labelBackgroundColor=none;strokeWidth=3;rounded=0;entryX=0.488;entryY=0.321;entryDx=0;entryDy=0;entryPerimeter=0;exitX=0.037;exitY=0.321;exitDx=0;exitDy=0;exitPerimeter=0;" edge="1" parent="1">
          <mxGeometry width="160" relative="1" as="geometry">
            <mxPoint x="832.56" y="-171.68" as="sourcePoint" />
            <mxPoint x="1210" y="-174.99999999999994" as="targetPoint" />
          </mxGeometry>
        </mxCell>
        <mxCell id="le-MzcUO9m41dVWZaQ8u-79" value="&lt;font style=&quot;font-size: 14px;&quot;&gt;FIREWALL&lt;/font&gt;" style="text;strokeColor=none;align=center;fillColor=none;html=1;verticalAlign=middle;whiteSpace=wrap;rounded=0;" vertex="1" parent="1">
          <mxGeometry x="920" y="-205" width="60" height="30" as="geometry" />
        </mxCell>
        <mxCell id="le-MzcUO9m41dVWZaQ8u-80" value="" style="image;html=1;image=img/lib/clip_art/computers/Server_Rack_128x128.png" vertex="1" parent="1">
          <mxGeometry x="1060" y="-255" width="80" height="80" as="geometry" />
        </mxCell>
        <mxCell id="le-MzcUO9m41dVWZaQ8u-81" value="&lt;b&gt;&lt;font style=&quot;font-size: 14px;&quot;&gt;SERVER&lt;/font&gt;&lt;/b&gt;" style="text;strokeColor=none;align=center;fillColor=none;html=1;verticalAlign=middle;whiteSpace=wrap;rounded=0;" vertex="1" parent="1">
          <mxGeometry x="1130" y="-225" width="60" height="30" as="geometry" />
        </mxCell>
        <mxCell id="le-MzcUO9m41dVWZaQ8u-82" value="" style="image;html=1;image=img/lib/clip_art/networking/Router_Icon_128x128.png" vertex="1" parent="1">
          <mxGeometry x="685" y="-389.43" width="70" height="70" as="geometry" />
        </mxCell>
        <mxCell id="le-MzcUO9m41dVWZaQ8u-83" value="" style="rounded=1;whiteSpace=wrap;html=1;opacity=20;" vertex="1" parent="1">
          <mxGeometry x="540" y="-385" width="245" height="60" as="geometry" />
        </mxCell>
        <mxCell id="le-MzcUO9m41dVWZaQ8u-86" value="" style="endArrow=classic;startArrow=classic;html=1;rounded=0;entryX=0.702;entryY=1.017;entryDx=0;entryDy=0;entryPerimeter=0;" edge="1" parent="1" target="le-MzcUO9m41dVWZaQ8u-83">
          <mxGeometry width="50" height="50" relative="1" as="geometry">
            <mxPoint x="425" y="-178.78" as="sourcePoint" />
            <mxPoint x="598" y="-314" as="targetPoint" />
          </mxGeometry>
        </mxCell>
        <mxCell id="le-MzcUO9m41dVWZaQ8u-87" value="" style="endArrow=classic;startArrow=classic;html=1;rounded=0;entryX=0.5;entryY=1;entryDx=0;entryDy=0;" edge="1" parent="1" target="le-MzcUO9m41dVWZaQ8u-82">
          <mxGeometry width="50" height="50" relative="1" as="geometry">
            <mxPoint x="620" y="-170" as="sourcePoint" />
            <mxPoint x="630" y="-300" as="targetPoint" />
          </mxGeometry>
        </mxCell>
        <mxCell id="le-MzcUO9m41dVWZaQ8u-89" value="" style="endArrow=classic;startArrow=classic;html=1;rounded=0;entryX=0.75;entryY=1;entryDx=0;entryDy=0;" edge="1" parent="1" target="le-MzcUO9m41dVWZaQ8u-82">
          <mxGeometry width="50" height="50" relative="1" as="geometry">
            <mxPoint x="855.17" y="-179.76" as="sourcePoint" />
            <mxPoint x="784.9990000000001" y="-290" as="targetPoint" />
          </mxGeometry>
        </mxCell>
        <mxCell id="le-MzcUO9m41dVWZaQ8u-90" value="" style="endArrow=classic;startArrow=classic;html=1;rounded=0;entryX=0.75;entryY=1;entryDx=0;entryDy=0;" edge="1" parent="1" target="le-MzcUO9m41dVWZaQ8u-8">
          <mxGeometry width="50" height="50" relative="1" as="geometry">
            <mxPoint x="850.17" y="-170.76" as="sourcePoint" />
            <mxPoint x="733" y="-310" as="targetPoint" />
          </mxGeometry>
        </mxCell>
        <mxCell id="le-MzcUO9m41dVWZaQ8u-91" value="&lt;font style=&quot;font-size: 18px;&quot;&gt;&lt;b&gt;DATADOG MC&lt;/b&gt;&lt;/font&gt;" style="text;strokeColor=none;align=center;fillColor=none;html=1;verticalAlign=middle;whiteSpace=wrap;rounded=0;" vertex="1" parent="1">
          <mxGeometry x="570" y="10" width="130" height="30" as="geometry" />
        </mxCell>
        <mxCell id="le-MzcUO9m41dVWZaQ8u-92" value="&lt;font style=&quot;font-size: 18px;&quot;&gt;&lt;b&gt;DATADOG MC&lt;/b&gt;&lt;/font&gt;" style="text;strokeColor=none;align=center;fillColor=none;html=1;verticalAlign=middle;whiteSpace=wrap;rounded=0;" vertex="1" parent="1">
          <mxGeometry x="160" width="130" height="30" as="geometry" />
        </mxCell>
        <mxCell id="le-MzcUO9m41dVWZaQ8u-93" value="&lt;font style=&quot;font-size: 18px;&quot;&gt;&lt;b&gt;DATADOG MC&lt;/b&gt;&lt;/font&gt;" style="text;strokeColor=none;align=center;fillColor=none;html=1;verticalAlign=middle;whiteSpace=wrap;rounded=0;" vertex="1" parent="1">
          <mxGeometry x="930" y="15" width="130" height="30" as="geometry" />
        </mxCell>
        <mxCell id="le-MzcUO9m41dVWZaQ8u-97" value="" style="edgeStyle=orthogonalEdgeStyle;html=1;endArrow=open;elbow=vertical;startArrow=none;endFill=0;strokeColor=#545B64;rounded=0;entryX=0.725;entryY=0.865;entryDx=0;entryDy=0;entryPerimeter=0;exitX=0.811;exitY=1.008;exitDx=0;exitDy=0;exitPerimeter=0;" edge="1" parent="1" source="le-MzcUO9m41dVWZaQ8u-4" target="le-MzcUO9m41dVWZaQ8u-1">
          <mxGeometry width="100" relative="1" as="geometry">
            <mxPoint x="350" y="230" as="sourcePoint" />
            <mxPoint x="580" y="260" as="targetPoint" />
            <Array as="points">
              <mxPoint x="350" y="223" />
              <mxPoint x="350" y="250" />
              <mxPoint x="949" y="250" />
              <mxPoint x="949" y="230" />
              <mxPoint x="903" y="230" />
            </Array>
          </mxGeometry>
        </mxCell>
        <mxCell id="le-MzcUO9m41dVWZaQ8u-98" value="" style="endArrow=classic;html=1;rounded=0;entryX=0.524;entryY=1.005;entryDx=0;entryDy=0;entryPerimeter=0;" edge="1" parent="1" target="le-MzcUO9m41dVWZaQ8u-5">
          <mxGeometry width="50" height="50" relative="1" as="geometry">
            <mxPoint x="640" y="250" as="sourcePoint" />
            <mxPoint x="640" y="230" as="targetPoint" />
          </mxGeometry>
        </mxCell>
        <mxCell id="le-MzcUO9m41dVWZaQ8u-99" value="&lt;font style=&quot;font-size: 14px;&quot;&gt;&lt;b&gt;REPLICA&lt;/b&gt;&lt;/font&gt;" style="text;strokeColor=none;align=center;fillColor=none;html=1;verticalAlign=middle;whiteSpace=wrap;rounded=0;" vertex="1" parent="1">
          <mxGeometry x="930" y="250" width="60" height="30" as="geometry" />
        </mxCell>
        <mxCell id="le-MzcUO9m41dVWZaQ8u-100" value="" style="shape=actor;whiteSpace=wrap;html=1;fillColor=#1ba1e2;fontColor=#ffffff;strokeColor=#006EAF;" vertex="1" parent="1">
          <mxGeometry x="860" y="255.57" width="30" height="40" as="geometry" />
        </mxCell>
        <mxCell id="le-MzcUO9m41dVWZaQ8u-101" value="&lt;font style=&quot;font-size: 14px;&quot;&gt;&lt;b&gt;LAMP&lt;/b&gt;&lt;/font&gt;" style="text;strokeColor=none;align=center;fillColor=none;html=1;verticalAlign=middle;whiteSpace=wrap;rounded=0;" vertex="1" parent="1">
          <mxGeometry x="800" y="255" width="60" height="30" as="geometry" />
        </mxCell>
      </root>
    </mxGraphModel>
  </diagram>
</mxfile>
